<svg id="Layer_1" data-name="Layer 1" xmlns="http://www.w3.org/2000/svg" viewBox="0 0 337.93 369.17"><path d="M141.6,409.2c-6.25.89-11.69,2.59-14.92,7.92a11.57,11.57,0,0,0,8.92,9.08c5,1,11-7,10-14C143.6,412.2,142.6,409.2,141.6,409.2Z" transform="translate(-63.3 -89.08)" style="fill:#6d6e71"/><path d="M394.88,125c-8.64-3-14-10.32-22.12-17.67-3-2-7-7-12-8-16.57-.92-32.3,1.54-48-3.53H109.28a42,42,0,0,0-8.53.88,125,125,0,0,0-.09,35l3,30c6,68-1,136,2,204,1.29,30.15,2.56,60.29.42,90.18,1,.08,2.12.13,3.2.13H340.13c19.77-14,40.88-26.38,56.6-44.44V137.29A41.58,41.58,0,0,0,394.88,125ZM135.6,426.2a11.57,11.57,0,0,1-8.92-9.08,16.24,16.24,0,0,0-1.08,2.08,16.24,16.24,0,0,1,1.08-2.08,11.89,11.89,0,0,1-.08-3.92,11.89,11.89,0,0,0,.08,3.92c3.23-5.33,8.67-7,14.92-7.92,1,0,2,3,4,3C146.6,419.2,140.6,427.2,135.6,426.2Zm17,1c-1.34-.67-2.23-3.15-2.37-5.91a4.24,4.24,0,0,0-.63.91,4.24,4.24,0,0,1,.63-.91,14.09,14.09,0,0,1,.37-4.09,14.09,14.09,0,0,0-.37,4.09c1.27-1.47,3.37-2.58,3.37-5.09C159.6,418.2,157.6,429.2,152.6,427.2ZM347.26,124.6c-5,2-9,0-12-4,0-.83-.68-3,.78-4.32a4.34,4.34,0,0,1,.22-4.68c1-2,5-5,6-3,2,3,1,6,5,9C348.26,117.6,350.26,122.6,347.26,124.6Zm26,6c-1,3-5,0-8-1-.62-.62.31-1.25.86-2.11a4.71,4.71,0,0,1,.24-1.65l-.1-.24.1.24c.78-2.34,3.16-4,3.9-6.24C374.26,121.6,375.26,127.6,373.26,130.6Z" transform="translate(-63.3 -89.08)" style="fill:#d1d3d4"/><path d="M370.26,119.6c-.74,2.22-3.12,3.9-3.9,6.24a1.84,1.84,0,0,1-.24,1.65,5,5,0,0,0,.14,1.11,5,5,0,0,1-.14-1.11c-.55.86-1.48,1.49-.86,2.11,3,1,7,4,8,1C375.26,127.6,374.26,121.6,370.26,119.6Z" transform="translate(-63.3 -89.08)" style="fill:#58595b"/><path d="M366.36,125.84a4.71,4.71,0,0,0-.24,1.65A1.84,1.84,0,0,0,366.36,125.84Z" transform="translate(-63.3 -89.08)" style="fill:#d1d3d4"/><path d="M347.26,117.6c-4-3-3-6-5-9-1-2-5,1-6,3a4.34,4.34,0,0,0-.22,4.68,3.45,3.45,0,0,1,1.22-.68,3.45,3.45,0,0,0-1.22.68,9.59,9.59,0,0,0,3.22,3.32,9.59,9.59,0,0,1-3.22-3.32c-1.46,1.3-.78,3.49-.78,4.32,3,4,7,6,12,4C350.26,122.6,348.26,117.6,347.26,117.6Z" transform="translate(-63.3 -89.08)" style="fill:#6d6e71"/><path d="M153.6,416.2c0,2.51-2.1,3.62-3.37,5.09.14,2.76,1,5.24,2.37,5.91C157.6,429.2,159.6,418.2,153.6,416.2Z" transform="translate(-63.3 -89.08)" style="fill:#58595b"/><path d="M394.88,125a41.51,41.51,0,0,0-39.64-29.2H312.8c15.66,5.07,31.39,2.61,48,3.53,5,1,9,6,12,8C380.85,114.69,386.24,122,394.88,125Z" transform="translate(-63.3 -89.08)" style="fill:#a7a9ac"/><path d="M396.73,414.5v-3C381,429.6,359.9,441.94,340.13,456h15.11A41.49,41.49,0,0,0,396.73,414.5Z" transform="translate(-63.3 -89.08)" style="fill:#a7a9ac"/><path d="M105.66,365.67c-3-68,4-136-2-204l-3-30a125,125,0,0,1,.09-35,41.5,41.5,0,0,0-32.95,40.6V414.5a41.48,41.48,0,0,0,38.28,41.35C108.22,426,107,395.82,105.66,365.67Z" transform="translate(-63.3 -89.08)" style="fill:#a7a9ac"/><path d="M317.38,105.92c2.05,1.13,3.28,3.77,5.45,5a1.78,1.78,0,0,1,1.57.52,4.54,4.54,0,0,0,1.12.06,4.54,4.54,0,0,1-1.12-.06c.76.7,1.21,1.72,1.93,1.22,1.52-2.77,5.18-6.18,2.4-7.7C326.14,102.42,320.05,102.34,317.38,105.92Z" transform="translate(-63.3 -89.08)" style="fill:#58595b"/><path d="M335.79,436.56c2.06,1.12,3.28,3.76,5.45,4.95a1.82,1.82,0,0,1,1.58.53,5.11,5.11,0,0,0,1.12,0,5.11,5.11,0,0,1-1.12,0c.75.69,1.2,1.72,1.92,1.21,1.52-2.77,5.18-6.17,2.41-7.69C344.55,433.06,338.47,433,335.79,436.56Z" transform="translate(-63.3 -89.08)" style="fill:#58595b"/><rect x="4.5" y="4.5" width="328.93" height="360.17" rx="41.48" style="fill:none;stroke:#231f20;stroke-miterlimit:10;stroke-width:9px"/></svg>